<?xml version="1.0" encoding="utf-8"?>
<!-- Generator: Adobe Illustrator 16.0.0, SVG Export Plug-In . SVG Version: 6.00 Build 0)  -->
<!DOCTYPE svg PUBLIC "-//W3C//DTD SVG 1.1//EN" "http://www.w3.org/Graphics/SVG/1.1/DTD/svg11.dtd" [
	<!ENTITY ns_flows "http://ns.adobe.com/Flows/1.0/">
	<!ENTITY ns_extend "http://ns.adobe.com/Extensibility/1.0/">
	<!ENTITY ns_ai "http://ns.adobe.com/AdobeIllustrator/10.0/">
	<!ENTITY ns_graphs "http://ns.adobe.com/Graphs/1.0/">
]>
<svg version="1.1" id="Capa_1" xmlns:x="&ns_extend;" xmlns:i="&ns_ai;" xmlns:graph="&ns_graphs;"
	 xmlns="http://www.w3.org/2000/svg" xmlns:xlink="http://www.w3.org/1999/xlink" xmlns:a="http://ns.adobe.com/AdobeSVGViewerExtensions/3.0/"
	 x="0px" y="0px" width="209.667px" height="25px" viewBox="0 0 209.667 25" enable-background="new 0 0 209.667 25"
	 xml:space="preserve">
<g>
	<path fill="#FFFFFF" d="M149.86,2.274c0,0-0.337,3.516,2.263,3.66h5.297c0,0,2.456,0.289,2.456,2.84c0,0-0.146,3.129-2.456,3.129
		h-5.297c0,0-2.294,0.449-2.294,2.295v8.636h3.932v-7.463h3.756c0,0,6.403,0.337,6.403-6.644c0-6.982-6.5-6.453-6.5-6.453"/>
	<polyline fill="#FFFFFF" points="164.979,5.885 165.652,10.315 168.012,7.667 168.012,22.833 171.526,22.833 171.526,2.266 
		168.59,2.266 	"/>
	<path fill="#FFFFFF" d="M184.575,8.004l1.83-3.178c0,0-2.216-2.475-5.585-2.562c-3.371-0.087-7.224,1.502-7.224,6.461
		c0,0-0.096,3.419,6.067,5.537c0,0,3.563,1.204,2.889,3.226c-0.674,2.022-3.178,2.841-7.367-0.674l-2.069,2.841
		c0,0,2.118,3.032,6.114,3.178c3.996,0.145,6.838-2.407,7.175-4.862c0.337-2.456-0.435-3.997-1.83-5.152
		c-1.396-1.156-2.569-1.589-4.775-2.455c-2.206-0.867-2.736-2.89-0.955-3.996C180.627,5.26,184.132,7.234,184.575,8.004"/>
	<path fill="#FFFFFF" d="M207.614,12.549c0-5.68-4.604-10.284-10.284-10.284c-5.68,0-10.283,4.604-10.283,10.284
		s4.604,10.284,10.283,10.284C203.011,22.833,207.614,18.229,207.614,12.549 M191.248,16.678h9.085v1.756h-7.798
		C192.535,18.434,191.24,18.459,191.248,16.678 M199.306,10.459c0,3.109-2.559,3.812-3.21,3.812h-3.109v1.454h-1.729v-1.479
		c0,0-0.075-1.707,1.454-1.707h3.034c0,0,1.585-0.074,1.585-2.067s-1.735-1.993-1.735-1.993h-3.009c0,0-1.455-0.227-1.329-1.806
		h4.813C196.07,6.673,199.306,7.35,199.306,10.459 M203.452,18.434h-1.755l-0.021-9.504l-1.344,1.542l-0.434-2.001l1.798-1.798
		h1.755V18.434z"/>
	<polyline fill-rule="evenodd" clip-rule="evenodd" fill="#FFFFFF" points="3.789,5.327 14.584,5.327 14.584,7.819 6.334,7.819 
		6.334,12.983 13.376,12.983 13.376,15.332 6.334,15.332 6.334,22.789 3.789,22.789 	"/>
	<polyline fill-rule="evenodd" clip-rule="evenodd" fill="#FFFFFF" points="16.969,5.327 19.515,5.327 19.515,20.297 27.765,20.297 
		27.765,22.789 16.969,22.789 	"/>
	<path fill-rule="evenodd" clip-rule="evenodd" fill="#FFFFFF" d="M30.049,14.043c0-2.035,0.058-3.398,0.174-4.089
		c0.124-0.688,0.313-1.245,0.568-1.671c0.41-0.804,1.067-1.52,1.972-2.148c0.89-0.635,1.999-0.963,3.33-0.979
		c1.345,0.016,2.466,0.344,3.364,0.984c0.889,0.631,1.53,1.351,1.925,2.158c0.284,0.424,0.48,0.979,0.588,1.668
		c0.099,0.687,0.149,2.045,0.149,4.076c0,1.999-0.05,3.351-0.15,4.055c-0.109,0.703-0.306,1.267-0.591,1.69
		c-0.395,0.808-1.037,1.52-1.925,2.134c-0.897,0.641-2.018,0.977-3.363,1.009c-1.33-0.032-2.439-0.368-3.328-1.009
		c-0.904-0.614-1.561-1.326-1.971-2.134c-0.124-0.264-0.236-0.516-0.336-0.756c-0.093-0.248-0.17-0.559-0.232-0.935
		C30.107,17.394,30.049,16.042,30.049,14.043 M32.595,14.043c0,1.725,0.062,2.891,0.187,3.499c0.108,0.609,0.33,1.103,0.665,1.479
		c0.272,0.361,0.63,0.654,1.073,0.878c0.436,0.265,0.957,0.396,1.564,0.396c0.615,0,1.147-0.132,1.599-0.396
		c0.428-0.224,0.77-0.517,1.027-0.878c0.334-0.376,0.564-0.869,0.689-1.479c0.116-0.608,0.175-1.774,0.175-3.499
		c0-1.723-0.059-2.897-0.175-3.522c-0.125-0.593-0.355-1.078-0.689-1.455c-0.257-0.361-0.599-0.662-1.027-0.901
		c-0.452-0.234-0.984-0.357-1.599-0.373c-0.607,0.016-1.128,0.139-1.564,0.373c-0.443,0.239-0.801,0.54-1.073,0.901
		c-0.335,0.377-0.557,0.862-0.665,1.455C32.657,11.146,32.595,12.321,32.595,14.043"/>
	<path fill-rule="evenodd" clip-rule="evenodd" fill="#FFFFFF" d="M48.135,12.983h3.897c0.965-0.016,1.688-0.304,2.171-0.863
		c0.476-0.521,0.712-1.16,0.712-1.922c-0.016-0.912-0.3-1.571-0.852-1.98c-0.437-0.359-1.066-0.54-1.892-0.54h-4.037 M45.589,5.327
		H52.2c1.41,0,2.56,0.385,3.451,1.15c1.065,0.87,1.622,2.112,1.668,3.725c-0.031,2.371-1.116,3.984-3.256,4.839l3.904,7.748h-3.029
		l-3.513-7.457h-3.291v7.457h-2.546V5.327z"/>
	<polyline fill-rule="evenodd" clip-rule="evenodd" fill="#FFFFFF" points="60.562,5.327 71.357,5.327 71.357,7.819 63.107,7.819 
		63.107,12.813 70.149,12.813 70.149,15.161 63.107,15.161 63.107,20.297 71.357,20.297 71.357,22.789 60.562,22.789 	"/>
	<polyline fill-rule="evenodd" clip-rule="evenodd" fill="#FFFFFF" points="74.209,5.327 76.63,5.327 84.311,17.738 84.356,17.738 
		84.356,5.327 86.902,5.327 86.902,22.789 84.47,22.789 76.801,10.375 76.755,10.375 76.755,22.789 74.209,22.789 	"/>
	<path fill-rule="evenodd" clip-rule="evenodd" fill="#FFFFFF" d="M102.406,17.904c-0.372,1.62-1.08,2.864-2.125,3.734
		c-1.076,0.861-2.351,1.293-3.821,1.293c-1.327-0.032-2.434-0.368-3.321-1.009c-0.902-0.614-1.559-1.326-1.967-2.134
		c-0.124-0.264-0.236-0.516-0.336-0.756c-0.093-0.248-0.17-0.559-0.231-0.935c-0.115-0.704-0.174-2.056-0.174-4.055
		c0-2.031,0.059-3.39,0.174-4.076c0.123-0.688,0.313-1.244,0.568-1.668c0.409-0.808,1.066-1.527,1.971-2.158
		c0.889-0.641,1.997-0.969,3.326-0.984c1.631,0.016,2.961,0.516,3.988,1.497c1.028,0.989,1.677,2.214,1.948,3.674h-2.722
		c-0.209-0.704-0.589-1.307-1.139-1.804c-0.574-0.473-1.272-0.717-2.093-0.732c-0.605,0.016-1.124,0.139-1.559,0.373
		c-0.441,0.239-0.799,0.54-1.069,0.901c-0.333,0.377-0.555,0.862-0.662,1.455c-0.124,0.625-0.187,1.8-0.187,3.522
		c0,1.725,0.063,2.891,0.187,3.499c0.107,0.61,0.329,1.104,0.663,1.479c0.271,0.361,0.628,0.654,1.069,0.878
		c0.435,0.265,0.954,0.396,1.56,0.396c1.441,0,2.52-0.798,3.233-2.393"/>
	<rect x="104.646" y="5.328" fill-rule="evenodd" clip-rule="evenodd" fill="#FFFFFF" width="2.546" height="17.461"/>
	<path fill-rule="evenodd" clip-rule="evenodd" fill="#FFFFFF" d="M118.924,16.527l-2.449-7.631h-0.047l-2.449,7.631
		 M119.655,18.875h-6.419l-1.301,3.914h-2.716l6.152-17.462h2.147l6.151,17.462h-2.704L119.655,18.875z"/>
	<polyline fill-rule="evenodd" clip-rule="evenodd" fill="#FFFFFF" points="134.78,15.602 129.687,5.328 132.4,5.328 
		135.984,13.073 139.567,5.328 142.282,5.328 137.185,15.602 137.185,22.789 134.78,22.789 	"/>
</g>
</svg>
